<svg width="690" height="690" viewBox="0 0 690 690" fill="none" xmlns="http://www.w3.org/2000/svg">
<circle cx="345" cy="345" r="345" fill="white"/>
<path fill-rule="evenodd" clip-rule="evenodd" d="M168.784 464.31C167.799 461.741 164.165 461.741 163.181 464.31L134.201 539.926C133.449 541.891 134.899 544 137.003 544H145.575C144.87 543.209 144.586 542.057 145.002 540.947L163.173 492.491C164.147 489.895 167.818 489.895 168.791 492.491L186.962 540.947C187.379 542.057 187.095 543.209 186.39 544H194.962C197.066 544 198.516 541.891 197.763 539.926L168.784 464.31Z" fill="#403368"/>
<path d="M163.171 503.557C164.14 500.952 167.825 500.952 168.794 503.557L177.034 525.704C177.764 527.664 176.314 529.75 174.223 529.75H157.742C155.651 529.75 154.201 527.664 154.931 525.704L163.171 503.557Z" fill="#545EFD"/>
<rect x="209.482" y="469" width="11" height="69" rx="5.5" fill="#403368"/>
<path d="M254.982 492.036C265.357 492.036 273.982 500.647 273.982 511.536C273.982 522.425 265.357 531.036 254.982 531.036C244.607 531.036 235.982 522.425 235.982 511.536C235.982 500.647 244.607 492.036 254.982 492.036Z" stroke="#403368" stroke-width="13"/>
<path d="M258.482 492.536C271.503 494.244 277.803 511.94 283.982 531.036" stroke="#545EFD" stroke-width="13" stroke-linecap="round"/>
<path fill-rule="evenodd" clip-rule="evenodd" d="M335.538 520.475C333.266 522.682 330.223 524 326.982 524C320.316 524 314.482 518.419 314.482 511C314.482 503.581 320.316 498 326.982 498C330.767 498 334.283 499.799 336.616 502.711C336.572 502.641 336.527 502.571 336.482 502.5C343.047 503.784 346.479 502.623 347.478 495.529C342.832 489.14 335.382 485 326.982 485C312.899 485 301.482 496.641 301.482 511C301.482 525.359 312.899 537 326.982 537C335.382 537 342.832 532.86 347.478 526.471C346.5 519.367 343.963 516.682 335.538 520.475Z" fill="#403368"/>
<path fill-rule="evenodd" clip-rule="evenodd" d="M393.557 502.524C393.547 502.521 393.537 502.518 393.527 502.515C391.256 500.314 388.217 499 384.982 499C378.615 499 373.008 504.091 372.517 511.011L372.482 511L371.501 534.073L371.439 534.034C370.28 535.819 368.269 537 365.982 537C362.393 537 359.482 534.09 359.482 530.5V512V511C359.482 510.669 359.507 510.345 359.555 510.027C360.543 496.589 371.55 486 384.982 486C392.331 486 398.954 489.17 403.608 494.241C403.913 494.536 404.187 494.85 404.426 495.178C404.431 495.183 404.435 495.188 404.439 495.193C404.439 495.194 404.439 495.194 404.439 495.195C405.185 496.224 405.582 497.383 405.482 498.5C405.482 502.09 402.572 505 398.982 505C396.679 504.943 394.721 503.979 393.557 502.524Z" fill="#403368"/>
<path d="M423.482 491V531" stroke="#403368" stroke-width="13" stroke-linecap="round"/>
<path d="M460.482 479C459.504 520.164 459.857 527.951 478.982 531" stroke="#403368" stroke-width="13" stroke-linecap="round"/>
<path d="M445.482 494.5H474.982" stroke="#545EFD" stroke-width="13" stroke-linecap="round"/>
<path d="M545.982 492.5V569.5" stroke="#555EF9" stroke-width="13" stroke-linecap="round"/>
<path fill-rule="evenodd" clip-rule="evenodd" d="M499.482 493.389V510.86C499.482 525.495 511.347 537.36 525.982 537.36C540.618 537.36 552.482 525.495 552.482 510.86V493.389H552.463C552.476 493.215 552.482 493.039 552.482 492.861C552.482 489.072 549.572 486 545.982 486C542.393 486 539.482 489.072 539.482 492.861C539.482 493.039 539.489 493.215 539.501 493.389H539.482V510.86C539.482 518.316 533.438 524.36 525.982 524.36C518.527 524.36 512.482 518.316 512.482 510.86V493.389H512.463C512.476 493.215 512.482 493.039 512.482 492.861C512.482 489.072 509.572 486 505.982 486C502.393 486 499.482 489.072 499.482 492.861C499.482 493.039 499.489 493.215 499.501 493.389H499.482Z" fill="#403368"/>
<path d="M525.482 537.525C525.648 537.519 525.815 537.516 525.982 537.516C533.438 537.516 539.482 543.56 539.482 551.016V568.827H539.501C539.489 569.005 539.482 569.184 539.482 569.365C539.482 573.228 542.392 576.36 545.982 576.36C549.572 576.36 552.482 573.228 552.482 569.365C552.482 569.184 552.476 569.005 552.463 568.827H552.482V551.016C552.482 542.99 548.914 535.797 543.278 530.938C538.636 534.94 532.592 537.36 525.982 537.36C525.815 537.36 525.649 537.358 525.482 537.355V537.525Z" fill="#545EFD"/>
<path d="M543.278 530.938C538.636 526.936 532.592 524.516 525.982 524.516C519.373 524.516 513.328 526.936 508.687 530.938C513.328 534.94 519.373 537.36 525.982 537.36C532.592 537.36 538.636 534.94 543.278 530.938Z" fill="#545EFD"/>
<mask id="mask0_134_580" style="mask-type:alpha" maskUnits="userSpaceOnUse" x="137" y="3" width="451" height="451">
<circle cx="362.798" cy="228.798" r="225" transform="rotate(0.975615 362.798 228.798)" fill="#4846B4"/>
</mask>
<g mask="url(#mask0_134_580)">
<circle cx="379.221" cy="229.22" r="247.5" transform="rotate(0.975615 379.221 229.22)" stroke="black" stroke-width="5"/>
<path d="M258.8 204.24L170.521 131.726L274.402 169.001L315.166 183.197L343.162 183.673L439.731 209.822L529.037 251.348L346.287 205.73L258.8 204.24Z" fill="#2B2346" stroke="black"/>
<path d="M343.162 183.673L315.166 183.197L274.402 169.001L326.323 115.377L405.496 135.228L425.293 206.075L343.162 183.673Z" fill="#2B2346" stroke="black"/>
<path d="M410.617 304.34L369.694 270.138C440.951 272.825 478.748 275.752 512.654 303.077C497.002 311.152 471.831 310.541 410.617 304.34Z" fill="#58184E" stroke="black"/>
<path d="M529.421 316.864C491.521 279.775 452.876 272.371 369.693 270.138L412.749 237.866L433.067 248.714L468.054 249.81L468.139 244.81C512.127 264.989 525.981 280.592 529.421 316.864Z" fill="#811055" stroke="black"/>
<path d="M413.258 237.375L369.202 269.629L305.169 271.039L340.126 215.126L413.258 237.375Z" fill="#403368" stroke="black"/>
<path d="M433.059 249.214L413.249 237.875L421.978 224.521L443.881 230.395L468.139 244.81L468.054 249.81L433.059 249.214Z" fill="#403368" stroke="black"/>
<path d="M413.249 237.875L340.126 215.126L346.296 205.23L421.978 224.521L413.249 237.875Z" fill="#6551A3" stroke="black"/>
<path d="M346.296 205.23L304.661 271.531L259.791 204.757L346.296 205.23Z" fill="#6551A3" stroke="black"/>
<path d="M402.729 297.704L328.552 307.443L305.16 271.539L369.202 269.629L402.729 297.704Z" fill="#6551A3" stroke="black"/>
<path d="M221.172 270.109L188.254 470.577L291.832 378.828L221.172 270.109Z" fill="#463775" stroke="black"/>
<path d="M221.173 270.109L244.582 305.013L345.133 332.229L258.8 204.24L227.879 228.717L221.173 270.109Z" fill="#543F95" stroke="black"/>
<path d="M329.052 307.451L345.133 332.229L375.286 382.249L413.608 304.891L402.229 297.696L329.052 307.451Z" fill="#58468F" stroke="black"/>
<path d="M244.582 305.013L292.331 378.836L344.633 332.22L244.582 305.013Z" fill="#58468F" stroke="black"/>
<path d="M345.133 332.229L188.763 470.086L343.641 449.22L375.277 382.749L345.133 332.229Z" fill="#6551A3" stroke="black"/>
<path d="M519.079 483.712L395.716 474.611L343.649 448.72L410.498 311.339L519.079 483.712Z" fill="#543F95" stroke="black"/>
<path d="M188.254 470.577L176.498 514.884L395.216 474.602L344.14 449.229L188.254 470.577Z" fill="#543F95" stroke="black"/>
<path d="M313.254 134.106L369.186 185.556L296.24 163.923L240.321 111.499L313.254 134.106Z" fill="#545EFD" stroke="black"/>
<path d="M367.033 249.062L342.524 241.437L359.679 229.499L367.033 249.062Z" fill="#545EFD" stroke="black"/>
</g>
</svg>
